<svg width="119" height="111" viewBox="0 0 119 111" fill="none" xmlns="http://www.w3.org/2000/svg">
<path d="M80.3263 42.1947C71.9463 42.1947 63.4363 41.8547 55.4663 39.6347C47.6463 37.4647 40.4663 33.2547 34.0663 28.3847C29.8663 25.2147 26.0663 22.6847 20.6163 23.0647C15.2936 23.3598 10.2068 25.3581 6.10633 28.7647C-0.823669 34.8247 0.226332 46.0347 2.98633 53.9147C7.15633 65.7847 19.8063 74.0347 30.5763 79.4047C43.0063 85.6147 56.6563 89.1947 70.3563 91.2947C82.3563 93.1247 97.7663 94.4447 108.166 86.6147C117.726 79.4147 120.346 62.9647 118.006 51.8647C117.435 48.5844 115.686 45.6257 113.086 43.5447C106.376 38.6347 96.3663 41.9147 88.8263 42.0747C86.0263 42.1947 83.1863 42.1947 80.3263 42.1947Z" fill="#D9DFEF"/>
<path d="M59.8365 110.755C80.1108 110.755 96.5465 109.729 96.5465 108.465C96.5465 107.2 80.1108 106.175 59.8365 106.175C39.5621 106.175 23.1265 107.2 23.1265 108.465C23.1265 109.729 39.5621 110.755 59.8365 110.755Z" fill="#D9DFEF"/>
<path d="M37.3463 8.44466C36.9949 6.59094 37.3935 4.6735 38.4548 3.11351C39.516 1.55351 41.1531 0.478523 43.0063 0.124659H43.1763C45.0301 -0.226813 46.9475 0.171855 48.5075 1.2331C50.0675 2.29435 51.1425 3.93139 51.4963 5.78466L37.3463 8.44466Z" fill="#689FED"/>
<path d="M21.1014 11.5303L67.7368 2.66786C70.0036 2.23708 72.3487 2.72443 74.2562 4.02271C76.1637 5.32098 77.4773 7.32383 77.9081 9.59064L14.1885 21.6997C13.758 19.4346 14.2443 17.0912 15.5405 15.1844C16.8367 13.2776 18.8368 11.9634 21.1014 11.5303Z" fill="#F1F6FF" stroke="#1B69FD" stroke-linecap="round" stroke-linejoin="round"/>
<path d="M10.6863 22.3547L81.3963 8.92465" stroke="#1B69FD" stroke-linecap="round" stroke-linejoin="round"/>
<path d="M107.066 77.9547L72.4665 101.895C71.5373 102.529 70.4026 102.789 69.2899 102.622C68.1772 102.455 67.1687 101.874 66.4665 100.995L27.9165 52.4247L76.4665 18.8347L108.357 71.9747C108.94 72.9493 109.131 74.109 108.891 75.2191C108.652 76.3293 107.999 77.307 107.066 77.9547Z" fill="#F1F6FF" stroke="#1B69FD" stroke-linecap="round" stroke-linejoin="round"/>
<path d="M22.3164 56.3047L82.0664 14.9547" stroke="#1B69FD" stroke-linecap="round" stroke-linejoin="round"/>
<path d="M49.8201 43.0013L49.812 43.0071C49.0285 43.573 48.8521 44.6669 49.418 45.4504L80.5444 88.5449C81.1103 89.3284 82.2042 89.5047 82.9877 88.9388L82.9958 88.933C83.7793 88.3671 83.9557 87.2732 83.3898 86.4897L52.2634 43.3952C51.6975 42.6117 50.6036 42.4354 49.8201 43.0013Z" fill="#689FED"/>
<path d="M91.5106 83.1561L91.5189 83.1506C92.3211 82.619 92.5405 81.5378 92.0089 80.7356L62.7709 36.6128C62.2394 35.8106 61.1581 35.5912 60.3559 36.1228L60.3476 36.1283C59.5454 36.6598 59.3261 37.7411 59.8576 38.5433L89.0956 82.6661C89.6272 83.4683 90.7084 83.6876 91.5106 83.1561Z" fill="#689FED"/>
<path d="M69.5602 29.3841L69.5517 29.3893C68.7302 29.8985 68.477 30.9772 68.9861 31.7987L96.9912 76.9839C97.5004 77.8054 98.5791 78.0586 99.4006 77.5495L99.4091 77.5442C100.231 77.035 100.484 75.9563 99.9747 75.1348L71.9696 29.9496C71.4604 29.1281 70.3817 28.8749 69.5602 29.3841Z" fill="#689FED"/>
<path d="M74.6802 94.633L74.6881 94.6269C75.4542 94.0376 75.5975 92.9388 75.0082 92.1728L42.5949 50.0377C42.0056 49.2716 40.9069 49.1283 40.1408 49.7176L40.1329 49.7237C39.3668 50.313 39.2235 51.4118 39.8128 52.1778L72.2261 94.3129C72.8154 95.079 73.9141 95.2223 74.6802 94.633Z" fill="#689FED"/>
<path d="M88.0364 20.0947C88.5776 20.0947 89.0164 19.6559 89.0164 19.1147C89.0164 18.5734 88.5776 18.1347 88.0364 18.1347C87.4952 18.1347 87.0564 18.5734 87.0564 19.1147C87.0564 19.6559 87.4952 20.0947 88.0364 20.0947Z" fill="#469CE3"/>
<path d="M11.3765 14.6047C11.9177 14.6047 12.3565 14.1659 12.3565 13.6247C12.3565 13.0834 11.9177 12.6447 11.3765 12.6447C10.8352 12.6447 10.3965 13.0834 10.3965 13.6247C10.3965 14.1659 10.8352 14.6047 11.3765 14.6047Z" fill="#469CE3"/>
<path d="M89.8364 97.8046C90.3777 97.8046 90.8164 97.3659 90.8164 96.8246C90.8164 96.2834 90.3777 95.8447 89.8364 95.8447C89.2952 95.8447 88.8564 96.2834 88.8564 96.8246C88.8564 97.3659 89.2952 97.8046 89.8364 97.8046Z" fill="#469CE3"/>
<path d="M48.3464 23.1647V27.4647" stroke="#1B69FD" stroke-linecap="round" stroke-linejoin="round"/>
<path d="M46.1963 25.3147H50.5063" stroke="#1B69FD" stroke-linecap="round" stroke-linejoin="round"/>
<path d="M33.8965 82.6047V86.9047" stroke="#1B69FD" stroke-linecap="round" stroke-linejoin="round"/>
<path d="M31.7363 84.7547H36.0463" stroke="#1B69FD" stroke-linecap="round" stroke-linejoin="round"/>
<path d="M94.3865 31.8247V36.1347" stroke="#1B69FD" stroke-linecap="round" stroke-linejoin="round"/>
<path d="M92.2363 33.9847H96.5363" stroke="#1B69FD" stroke-linecap="round" stroke-linejoin="round"/>
</svg>
