<svg width="119" height="111" viewBox="0 0 119 111" fill="none" xmlns="http://www.w3.org/2000/svg">
<path d="M80.3263 42.1947C71.9463 42.1947 63.4363 41.8547 55.4663 39.6347C47.6463 37.4647 40.4663 33.2547 34.0663 28.3847C29.8663 25.2147 26.0663 22.6847 20.6163 23.0647C15.2936 23.3598 10.2068 25.3581 6.10633 28.7647C-0.823669 34.8247 0.226332 46.0347 2.98633 53.9147C7.15633 65.7847 19.8063 74.0347 30.5763 79.4047C43.0063 85.6147 56.6563 89.1947 70.3563 91.2947C82.3563 93.1247 97.7663 94.4447 108.166 86.6147C117.726 79.4147 120.346 62.9647 118.006 51.8647C117.435 48.5844 115.686 45.6257 113.086 43.5447C106.376 38.6347 96.3663 41.9147 88.8263 42.0747C86.0263 42.1947 83.1863 42.1947 80.3263 42.1947Z" fill="#4B4F5A"/>
<path d="M59.8365 110.755C80.1108 110.755 96.5465 109.729 96.5465 108.465C96.5465 107.2 80.1108 106.175 59.8365 106.175C39.5621 106.175 23.1265 107.2 23.1265 108.465C23.1265 109.729 39.5621 110.755 59.8365 110.755Z" fill="#4B4F5A"/>
<path d="M37.3463 8.44466C36.9949 6.59094 37.3935 4.6735 38.4548 3.11351C39.516 1.55351 41.1531 0.478523 43.0063 0.124659H43.1763C45.0301 -0.226813 46.9475 0.171855 48.5075 1.2331C50.0675 2.29435 51.1425 3.93139 51.4963 5.78466L37.3463 8.44466Z" fill="#05306E"/>
<path d="M21.1017 11.5303L67.737 2.66786C70.0039 2.23708 72.3489 2.72443 74.2564 4.02271C76.1639 5.32098 77.4775 7.32383 77.9083 9.59064L14.1887 21.6997C13.7582 19.4346 14.2445 17.0912 15.5407 15.1844C16.8369 13.2776 18.837 11.9634 21.1017 11.5303Z" fill="#091730" stroke="#1F4CA2" stroke-linecap="round" stroke-linejoin="round"/>
<path d="M10.6865 22.3547L81.3965 8.92465" stroke="#1F4CA2" stroke-linecap="round" stroke-linejoin="round"/>
<path d="M107.066 77.9547L72.4665 101.895C71.5373 102.529 70.4026 102.789 69.2899 102.622C68.1772 102.455 67.1687 101.874 66.4665 100.995L27.9165 52.4247L76.4665 18.8347L108.357 71.9747C108.94 72.9493 109.131 74.109 108.891 75.2191C108.652 76.3293 107.999 77.307 107.066 77.9547Z" fill="#091730" stroke="#1F4CA2" stroke-linecap="round" stroke-linejoin="round"/>
<path d="M22.3164 56.3047L82.0664 14.9547" stroke="#1F4CA2" stroke-linecap="round" stroke-linejoin="round"/>
<path d="M49.8203 43.0013L49.8122 43.0071C49.0287 43.573 48.8523 44.6669 49.4182 45.4504L80.5447 88.5449C81.1106 89.3284 82.2045 89.5047 82.988 88.9388L82.9961 88.933C83.7796 88.3671 83.956 87.2732 83.3901 86.4897L52.2636 43.3952C51.6977 42.6117 50.6038 42.4354 49.8203 43.0013Z" fill="#05306E"/>
<path d="M91.5109 83.1561L91.5192 83.1506C92.3214 82.619 92.5408 81.5378 92.0092 80.7356L62.7712 36.6128C62.2396 35.8106 61.1584 35.5912 60.3562 36.1228L60.3479 36.1283C59.5457 36.6598 59.3263 37.7411 59.8579 38.5433L89.0959 82.6661C89.6275 83.4683 90.7087 83.6876 91.5109 83.1561Z" fill="#05306E"/>
<path d="M69.5604 29.3841L69.5519 29.3893C68.7304 29.8985 68.4772 30.9772 68.9864 31.7987L96.9914 76.9839C97.5006 77.8054 98.5793 78.0586 99.4008 77.5495L99.4093 77.5442C100.231 77.035 100.484 75.9563 99.9749 75.1348L71.9698 29.9496C71.4607 29.1281 70.3819 28.8749 69.5604 29.3841Z" fill="#05306E"/>
<path d="M74.6802 94.633L74.6881 94.6269C75.4542 94.0376 75.5975 92.9388 75.0082 92.1728L42.5949 50.0377C42.0056 49.2716 40.9069 49.1283 40.1408 49.7176L40.1329 49.7237C39.3668 50.313 39.2235 51.4118 39.8128 52.1778L72.2261 94.3129C72.8154 95.079 73.9141 95.2223 74.6802 94.633Z" fill="#05306E"/>
<path d="M88.0366 20.0947C88.5779 20.0947 89.0166 19.6559 89.0166 19.1147C89.0166 18.5734 88.5779 18.1347 88.0366 18.1347C87.4954 18.1347 87.0566 18.5734 87.0566 19.1147C87.0566 19.6559 87.4954 20.0947 88.0366 20.0947Z" fill="#1C2E3D"/>
<path d="M11.3765 14.6047C11.9177 14.6047 12.3565 14.1659 12.3565 13.6247C12.3565 13.0834 11.9177 12.6447 11.3765 12.6447C10.8352 12.6447 10.3965 13.0834 10.3965 13.6247C10.3965 14.1659 10.8352 14.6047 11.3765 14.6047Z" fill="#1C2E3D"/>
<path d="M89.8364 97.8046C90.3777 97.8046 90.8164 97.3659 90.8164 96.8246C90.8164 96.2834 90.3777 95.8447 89.8364 95.8447C89.2952 95.8447 88.8564 96.2834 88.8564 96.8246C88.8564 97.3659 89.2952 97.8046 89.8364 97.8046Z" fill="#1C2E3D"/>
<path d="M48.3467 23.1647V27.4647" stroke="#1F4CA2" stroke-linecap="round" stroke-linejoin="round"/>
<path d="M46.1963 25.3147H50.5063" stroke="#1F4CA2" stroke-linecap="round" stroke-linejoin="round"/>
<path d="M33.8965 82.6047V86.9047" stroke="#1F4CA2" stroke-linecap="round" stroke-linejoin="round"/>
<path d="M31.7363 84.7547H36.0463" stroke="#1F4CA2" stroke-linecap="round" stroke-linejoin="round"/>
<path d="M94.3867 31.8247V36.1347" stroke="#1F4CA2" stroke-linecap="round" stroke-linejoin="round"/>
<path d="M92.2363 33.9847H96.5363" stroke="#1F4CA2" stroke-linecap="round" stroke-linejoin="round"/>
</svg>
