<svg width="119" height="95" viewBox="0 0 119 95" fill="none" xmlns="http://www.w3.org/2000/svg">
<path d="M80.128 25.8C71.758 25.8 63.268 25.47 55.308 23.25C47.348 21.03 40.368 16.88 33.938 12.02C29.758 8.84996 25.938 6.33996 20.518 6.71996C15.2052 7.00023 10.1242 8.98497 6.02803 12.38C-0.881966 18.38 0.168033 29.61 2.92803 37.48C7.07803 49.33 19.718 57.56 30.498 62.93C42.908 69.13 56.498 72.73 70.208 74.8C82.208 76.62 97.578 77.94 107.958 70.12C117.498 62.93 120.118 46.52 117.778 35.43C117.186 32.1667 115.427 29.2305 112.828 27.17C106.138 22.28 96.138 25.55 88.618 25.71C85.818 25.72 82.978 25.79 80.128 25.8Z" fill="#4B4F5A"/>
<path d="M103.818 70.21V74.5" stroke="#1F4CA2" stroke-linecap="round" stroke-linejoin="round"/>
<path d="M101.668 72.35H105.958" stroke="#1F4CA2" stroke-linecap="round" stroke-linejoin="round"/>
<path d="M28.9678 11.68V15.98" stroke="#1F4CA2" stroke-linecap="round" stroke-linejoin="round"/>
<path d="M26.8281 13.83H31.1181" stroke="#1F4CA2" stroke-linecap="round" stroke-linejoin="round"/>
<path d="M100.958 12.07C101.499 12.07 101.938 11.6312 101.938 11.09C101.938 10.5487 101.499 10.11 100.958 10.11C100.417 10.11 99.978 10.5487 99.978 11.09C99.978 11.6312 100.417 12.07 100.958 12.07Z" fill="#1C2E3D"/>
<path d="M32.3081 43.4C32.8494 43.4 33.2881 42.9612 33.2881 42.42C33.2881 41.8788 32.8494 41.44 32.3081 41.44C31.7669 41.44 31.3281 41.8788 31.3281 42.42C31.3281 42.9612 31.7669 43.4 32.3081 43.4Z" fill="#1C2E3D"/>
<path d="M63.8678 94.21C84.109 94.21 100.518 93.1892 100.518 91.93C100.518 90.6708 84.109 89.65 63.8678 89.65C43.6265 89.65 27.2178 90.6708 27.2178 91.93C27.2178 93.1892 43.6265 94.21 63.8678 94.21Z" fill="#4B4F5A"/>
<path d="M80.1381 71.01L62.3481 60.33C61.7431 59.9699 61.0521 59.7798 60.3481 59.7798C59.644 59.7798 58.9531 59.9699 58.3481 60.33L40.9681 70.93C40.3768 71.2904 39.7002 71.487 39.0079 71.4993C38.3155 71.5117 37.6323 71.3395 37.0285 71.0005C36.4247 70.6614 35.9221 70.1677 35.5723 69.5701C35.2225 68.9725 35.0381 68.2925 35.0381 67.6V3.9C35.0381 2.86565 35.449 1.87367 36.1804 1.14228C36.9118 0.410889 37.9037 0 38.9381 0H82.1881C83.2216 0.00263994 84.2121 0.414378 84.9429 1.1452C85.6737 1.87602 86.0854 2.86646 86.0881 3.9V67.66C86.0939 68.3572 85.9126 69.0432 85.5633 69.6466C85.2139 70.25 84.7091 70.7486 84.1016 71.0907C83.494 71.4328 82.8059 71.6057 82.1088 71.5915C81.4117 71.5773 80.7312 71.3765 80.1381 71.01Z" fill="#05306E"/>
<path d="M87.7281 78.79L69.1581 67.64C68.5216 67.2553 67.7919 67.052 67.0481 67.052C66.3044 67.052 65.5747 67.2553 64.9381 67.64L46.7981 78.72C46.1799 79.096 45.4728 79.3008 44.7494 79.3134C44.0259 79.326 43.3121 79.146 42.6811 78.7919C42.0502 78.4377 41.5247 77.9221 41.1587 77.298C40.7927 76.6738 40.5992 75.9635 40.5981 75.24V8.72997C40.6008 7.64962 41.0318 6.61442 41.7967 5.85144C42.5615 5.08845 43.5978 4.65997 44.6781 4.65997H89.8281C90.9076 4.65997 91.9428 5.08877 92.7061 5.85205C93.4693 6.61532 93.8981 7.65054 93.8981 8.72997V75.3C93.8988 76.0211 93.7078 76.7295 93.3448 77.3526C92.9817 77.9757 92.4596 78.4911 91.832 78.8461C91.2043 79.2012 90.4935 79.3831 89.7725 79.3732C89.0514 79.3633 88.3459 79.1621 87.7281 78.79Z" fill="#091730" stroke="#1F4CA2" stroke-linecap="round" stroke-linejoin="round"/>
<path d="M67.2481 51.19C77.5813 51.19 85.9581 42.8132 85.9581 32.48C85.9581 22.1467 77.5813 13.77 67.2481 13.77C56.9148 13.77 48.5381 22.1467 48.5381 32.48C48.5381 42.8132 56.9148 51.19 67.2481 51.19Z" fill="#05306E"/>
<path d="M68.208 19.29L71.648 26.29L79.328 27.41C79.5243 27.4399 79.7084 27.5238 79.8597 27.6523C80.011 27.7809 80.1236 27.949 80.1849 28.1378C80.2461 28.3267 80.2535 28.5289 80.2064 28.7218C80.1593 28.9147 80.0594 29.0906 79.918 29.23L74.358 34.65L75.668 42.3C75.7019 42.4966 75.6801 42.6987 75.6051 42.8836C75.5302 43.0685 75.4051 43.2288 75.2439 43.3463C75.0827 43.4638 74.8918 43.5339 74.6929 43.5487C74.4939 43.5635 74.2948 43.5224 74.118 43.43L67.248 39.77L60.378 43.39C60.2012 43.4824 60.0021 43.5235 59.8031 43.5087C59.6042 43.4939 59.4133 43.4238 59.2521 43.3063C59.0909 43.1888 58.9658 43.0285 58.8908 42.8436C58.8159 42.6587 58.7941 42.4566 58.828 42.26L60.148 34.61L54.588 29.17C54.4427 29.0323 54.3395 28.8562 54.2901 28.6623C54.2407 28.4683 54.2473 28.2643 54.309 28.0739C54.3707 27.8835 54.4851 27.7145 54.6389 27.5864C54.7926 27.4583 54.9796 27.3763 55.178 27.35L62.858 26.23L66.298 19.23C66.3927 19.056 66.5338 18.9116 66.7057 18.8131C66.8776 18.7146 67.0734 18.6657 67.2715 18.6719C67.4695 18.6781 67.6619 18.7392 67.8272 18.8483C67.9926 18.9575 68.1244 19.1104 68.208 19.29Z" fill="#091730" stroke="#1F4CA2" stroke-linecap="round" stroke-linejoin="round"/>
</svg>
