<svg width="123" height="74" viewBox="0 0 123 74" fill="none" xmlns="http://www.w3.org/2000/svg">
<path d="M8.426 70.779C6.539 72.87 1.184 72.309 1.133 69.045C0.878 47.37 0.878 25.695 2 4.02C2.204 0.194997 9.803 0.245999 9.65 4.02C8.885 24.114 8.834 44.157 9.038 64.251C10.211 61.242 11.078 58.08 11.894 55.122C13.832 48.288 15.464 41.454 17.198 34.569C18.677 28.653 20.207 22.686 22.094 16.872C23.42 12.639 24.899 8.253 27.449 4.581C28.775 2.694 31.223 0.245999 33.824 1.368C36.425 2.49 37.394 5.703 38.006 8.151C40.658 18.963 40.556 30.336 40.556 41.352C40.556 47.013 40.454 52.674 40.505 58.335C40.556 60.477 40.607 62.67 40.76 64.812C40.811 65.679 40.913 66.495 41.015 67.311C41.015 67.413 41.066 67.464 41.066 67.515C41.066 67.566 41.066 67.617 41.117 67.719C41.168 67.974 41.219 68.178 41.27 68.433C42.494 72.513 34.64 73.635 33.569 70.014C32.498 66.291 32.651 62.16 32.651 58.335C32.6 52.215 32.753 46.146 32.957 40.026C33.263 29.571 34.385 18.861 33.62 8.457C33.569 7.284 33.518 2.898 32.192 2.949C29.693 3.051 27.755 8.559 27.041 10.293C22.808 20.697 20.462 31.866 17.759 42.729C16.331 48.288 14.954 53.796 13.271 59.304C12.149 63.078 10.976 67.005 8.885 70.422C8.783 70.575 8.63 70.728 8.426 70.779ZM67.5302 39.312C68.7542 39.057 69.4682 40.536 68.0912 40.893C66.3062 41.403 64.3682 41.862 62.3282 42.117C62.0732 47.37 59.5742 53.031 54.1172 54.102C50.5472 54.765 47.7422 52.011 46.5182 48.9C45.1412 45.381 45.8552 41.403 46.3652 37.782C46.1612 37.119 46.2632 36.456 46.8242 35.691C46.8752 35.589 46.9262 35.487 46.9772 35.385C47.0282 35.385 47.0282 35.334 47.0282 35.334C47.3852 34.314 47.9972 33.345 49.0172 32.427C51.2102 30.387 54.1682 29.673 57.0242 30.795C60.0842 32.07 61.4612 34.926 62.0732 38.037C62.2262 38.751 62.2772 39.465 62.3282 40.281C64.1132 40.077 65.8472 39.72 67.5302 39.312ZM50.4962 34.008C52.5872 33.957 54.7292 34.875 54.4232 36.915C54.2702 37.986 54.0662 39.108 53.8622 40.179C54.0662 40.23 54.2702 40.23 54.4742 40.281C56.2082 40.485 57.9422 40.536 59.6762 40.485C59.5742 39.567 59.4722 38.598 59.2682 37.68C58.5032 34.314 55.4942 30.285 51.6182 32.988C51.2612 33.243 50.8532 33.6 50.4962 34.008ZM58.2992 47.727C59.1662 46.044 59.5742 44.208 59.6762 42.423C57.6362 42.525 55.5452 42.474 53.6072 42.168C53.4542 43.545 53.3522 44.922 53.4542 46.248C53.5562 47.37 53.5052 49.563 54.1172 50.481C55.4432 52.572 57.7382 48.798 58.2992 47.727ZM87.4413 16.158C88.2063 15.444 89.9913 16.362 88.9713 17.331C87.2883 18.912 84.6873 19.269 82.0353 19.167C81.9333 19.677 81.7803 20.187 81.6783 20.646C80.1483 25.746 77.0373 30.183 74.3853 34.824C74.3853 35.385 74.3853 35.997 74.3853 36.609C74.3853 36.66 74.3853 36.711 74.3853 36.762C74.3853 36.813 74.3853 36.813 74.3853 36.813C74.3853 40.893 74.7933 44.973 74.4363 49.002C74.3853 49.971 74.1303 50.991 74.1813 51.909C74.6403 51.45 75.2013 50.634 75.5583 50.124C77.7003 47.166 78.9753 43.545 80.2503 40.179C80.6073 39.21 82.7493 39.516 82.3413 40.587C80.9133 44.463 76.6803 58.233 70.1013 53.184C67.3473 51.042 66.8373 47.268 66.5313 44.055C66.2763 40.842 66.2763 37.629 66.4293 34.467C66.5313 28.857 66.6333 22.89 68.5713 17.637C68.5713 17.586 68.6223 17.535 68.6223 17.433C65.8683 17.127 63.3693 16.923 63.3693 17.28C63.4713 18.453 61.1253 18.453 61.0743 17.28C60.8703 14.373 66.4293 15.189 69.3873 15.75C71.2233 11.976 74.3343 8.508 78.9243 9.732C82.3923 10.65 82.8003 14.169 82.3413 17.382C84.1773 17.484 86.1663 17.331 87.4413 16.158ZM77.6493 24.675C78.0573 23.859 79.0263 21.462 79.6893 18.963C78.3123 18.81 76.9863 18.606 75.8643 18.453C75.7623 18.402 75.4563 18.402 75.0993 18.351C74.4873 22.125 74.3343 27.072 74.2833 30.897C75.5073 28.857 76.6803 26.817 77.6493 24.675ZM80.0463 17.229C80.5053 14.73 80.3013 12.537 78.4653 12.282C76.9863 12.078 76.0173 13.965 75.4053 16.719C76.9353 16.923 78.5163 17.127 80.0463 17.229ZM97.9768 39.873C98.4868 38.955 100.731 39.261 100.221 40.332C97.6198 45.534 94.2538 52.419 88.1338 54.051C84.3088 55.071 80.9428 53.031 79.7188 48.951C78.4438 44.769 79.2088 39.414 81.3508 35.793C82.5238 33.804 84.3088 31.968 86.4508 30.999C88.7458 29.877 93.4378 29.469 94.2028 32.733C95.1208 36.66 90.9388 39.873 87.2668 41.811C86.8078 43.647 86.7058 45.738 86.6548 47.829C86.6548 50.073 86.7058 52.98 89.7148 51.195C93.5398 48.9 95.9368 43.647 97.9768 39.873ZM91.8058 35.079C90.9388 35.028 88.9498 37.017 88.4908 38.7C89.4598 38.547 91.9588 36.048 91.8058 35.079ZM120.09 39.567C121.11 39.261 122.538 40.536 121.212 40.995C118.254 41.913 115.296 42.627 112.338 43.494C114.072 45.993 114.684 48.9 112.491 51.96C110.655 54.408 107.034 55.326 104.127 54.918C102.24 54.663 99.1797 53.847 98.6697 51.654C97.8537 48.135 101.373 45.942 104.382 44.514C101.679 41.709 96.3747 40.281 97.5987 35.487C98.8227 30.846 105.147 28.959 109.125 30.846C111.573 31.968 112.899 34.263 112.593 36.966C112.491 38.037 110.298 38.037 110.4 36.966C110.502 35.436 110.145 33.753 108.819 32.835C107.187 31.713 103.107 31.968 103.311 34.62C103.362 35.742 104.994 36.813 105.81 37.374C107.544 38.649 109.584 40.23 111.216 42.015C114.174 41.199 117.183 40.485 120.09 39.567ZM104.535 50.532C105.3 49.869 105.963 48.594 105.861 47.523C105.861 46.962 105.708 46.452 105.453 45.993C104.025 46.656 102.597 47.472 101.934 48.645C100.812 50.634 102.954 52.011 104.535 50.532Z" fill="black"/>
</svg>
