<svg width="43" height="74" viewBox="0 0 43 74" fill="none" xmlns="http://www.w3.org/2000/svg">
<path d="M8.426 70.779C6.539 72.87 1.184 72.309 1.133 69.045C0.878 47.37 0.878 25.695 2 4.02C2.204 0.194997 9.803 0.245999 9.65 4.02C8.885 24.114 8.834 44.157 9.038 64.251C10.211 61.242 11.078 58.08 11.894 55.122C13.832 48.288 15.464 41.454 17.198 34.569C18.677 28.653 20.207 22.686 22.094 16.872C23.42 12.639 24.899 8.253 27.449 4.581C28.775 2.694 31.223 0.245999 33.824 1.368C36.425 2.49 37.394 5.703 38.006 8.151C40.658 18.963 40.556 30.336 40.556 41.352C40.556 47.013 40.454 52.674 40.505 58.335C40.556 60.477 40.607 62.67 40.76 64.812C40.811 65.679 40.913 66.495 41.015 67.311C41.015 67.413 41.066 67.464 41.066 67.515C41.066 67.566 41.066 67.617 41.117 67.719C41.168 67.974 41.219 68.178 41.27 68.433C42.494 72.513 34.64 73.635 33.569 70.014C32.498 66.291 32.651 62.16 32.651 58.335C32.6 52.215 32.753 46.146 32.957 40.026C33.263 29.571 34.385 18.861 33.62 8.457C33.569 7.284 33.518 2.898 32.192 2.949C29.693 3.051 27.755 8.559 27.041 10.293C22.808 20.697 20.462 31.866 17.759 42.729C16.331 48.288 14.954 53.796 13.271 59.304C12.149 63.078 10.976 67.005 8.885 70.422C8.783 70.575 8.63 70.728 8.426 70.779Z" fill="black"/>
</svg>
