<svg width="119" height="110" viewBox="0 0 119 110" fill="none" xmlns="http://www.w3.org/2000/svg">
<path d="M103.666 26.66V30.97" stroke="#1F4CA2" stroke-linecap="round" stroke-linejoin="round"/>
<path d="M101.517 28.81H105.817" stroke="#1F4CA2" stroke-linecap="round" stroke-linejoin="round"/>
<path d="M15.5063 10.03V14.33" stroke="#1F4CA2" stroke-linecap="round" stroke-linejoin="round"/>
<path d="M13.3467 12.18H17.6567" stroke="#1F4CA2" stroke-linecap="round" stroke-linejoin="round"/>
<path d="M48.9663 1.96C49.5076 1.96 49.9463 1.52124 49.9463 0.98C49.9463 0.43876 49.5076 0 48.9663 0C48.4251 0 47.9863 0.43876 47.9863 0.98C47.9863 1.52124 48.4251 1.96 48.9663 1.96Z" fill="#1C2E3D"/>
<path d="M80.3863 40.92C72.0163 40.92 63.4963 40.58 55.5263 38.36C47.7063 36.19 40.5263 31.98 34.1263 27.11C29.9363 23.94 26.1263 21.42 20.6863 21.8C15.3598 22.0916 10.2687 24.0902 6.16627 27.5C-0.753734 33.5 0.286266 44.73 3.05627 52.62C7.21627 64.5 19.8763 72.73 30.6363 78.11C43.0663 84.32 56.7263 87.92 70.4163 90C82.4163 91.82 97.8363 93.15 108.236 85.31C117.786 78.11 120.406 61.67 118.066 50.57C117.499 47.2879 115.753 44.3258 113.156 42.24C106.446 37.34 96.4363 40.61 88.8963 40.78C86.0963 40.84 83.2463 40.91 80.3863 40.92Z" fill="#4B4F5A"/>
<path d="M59.9063 109.45C80.1807 109.45 96.6163 108.425 96.6163 107.16C96.6163 105.895 80.1807 104.87 59.9063 104.87C39.6319 104.87 23.1963 105.895 23.1963 107.16C23.1963 108.425 39.6319 109.45 59.9063 109.45Z" fill="#4B4F5A"/>
<path d="M75.4991 3.32117L26.6238 9.92937C25.0585 10.141 23.9611 11.5815 24.1728 13.1468L33.6509 83.2489C33.8626 84.8142 35.3031 85.9116 36.8683 85.6999L85.7436 79.0917C87.3089 78.8801 88.4063 77.4396 88.1946 75.8743L78.7165 5.77218C78.5048 4.20689 77.0643 3.10953 75.4991 3.32117Z" fill="#05306E"/>
<path d="M91.7366 13.61H42.4166C40.8371 13.61 39.5566 14.8905 39.5566 16.47V87.21C39.5566 88.7895 40.8371 90.07 42.4166 90.07H91.7366C93.3162 90.07 94.5966 88.7895 94.5966 87.21V16.47C94.5966 14.8905 93.3162 13.61 91.7366 13.61Z" fill="#091730" stroke="#1F4CA2" stroke-linecap="round" stroke-linejoin="round"/>
<path d="M78.9264 68.53H55.2164C54.3273 68.53 53.6064 69.2508 53.6064 70.14V70.15C53.6064 71.0392 54.3273 71.76 55.2164 71.76H78.9264C79.8156 71.76 80.5364 71.0392 80.5364 70.15V70.14C80.5364 69.2508 79.8156 68.53 78.9264 68.53Z" fill="#05306E"/>
<path d="M78.0764 81.73H55.3264C55.0558 81.73 54.8364 81.9494 54.8364 82.22V82.37C54.8364 82.6406 55.0558 82.86 55.3264 82.86H78.0764C78.347 82.86 78.5664 82.6406 78.5664 82.37V82.22C78.5664 81.9494 78.347 81.73 78.0764 81.73Z" fill="#05306E"/>
<path d="M83.8763 76.44H50.3663C50.0073 76.44 49.7163 76.731 49.7163 77.09C49.7163 77.449 50.0073 77.74 50.3663 77.74H83.8763C84.2353 77.74 84.5263 77.449 84.5263 77.09C84.5263 76.731 84.2353 76.44 83.8763 76.44Z" fill="#05306E"/>
<path d="M90.0064 15.94H44.1464C43.0087 15.94 42.0864 16.8623 42.0864 18V57.77C42.0864 58.9077 43.0087 59.83 44.1464 59.83H90.0064C91.1441 59.83 92.0664 58.9077 92.0664 57.77V18C92.0664 16.8623 91.1441 15.94 90.0064 15.94Z" fill="#091730" stroke="#1F4CA2" stroke-linecap="round" stroke-linejoin="round"/>
<path d="M73.1963 47.5C73.523 47.4922 73.8395 47.3852 74.104 47.1933C74.3684 47.0013 74.5681 46.7334 74.6766 46.4252C74.7851 46.117 74.7973 45.783 74.7115 45.4677C74.6257 45.1525 74.446 44.8707 74.1963 44.66C72.1105 42.9323 69.4809 41.9978 66.7726 42.0216C64.0642 42.0454 61.4515 43.026 59.3963 44.79C59.1487 45 58.9708 45.2803 58.8862 45.5938C58.8017 45.9073 58.8145 46.2391 58.9231 46.5451C59.0316 46.8511 59.2306 47.1169 59.4938 47.3071C59.7569 47.4973 60.0717 47.603 60.3963 47.61L73.1963 47.5Z" fill="#091730" stroke="#1F4CA2" stroke-linecap="round" stroke-linejoin="round"/>
<path d="M81.3661 37.49L75.5361 34.13L81.3661 30.76" stroke="#1F4CA2" stroke-width="0.71" stroke-linecap="round" stroke-linejoin="round"/>
<path d="M52.3066 37.49L58.1366 34.13L52.3066 30.76" stroke="#1F4CA2" stroke-width="0.71" stroke-linecap="round" stroke-linejoin="round"/>
<path d="M20.3364 58.82V63.13" stroke="#1F4CA2" stroke-linecap="round" stroke-linejoin="round"/>
<path d="M18.1865 60.97H22.4965" stroke="#1F4CA2" stroke-linecap="round" stroke-linejoin="round"/>
<path d="M101.846 61.87C102.387 61.87 102.826 61.4312 102.826 60.89C102.826 60.3488 102.387 59.91 101.846 59.91C101.305 59.91 100.866 60.3488 100.866 60.89C100.866 61.4312 101.305 61.87 101.846 61.87Z" fill="#1C2E3D"/>
</svg>
