<svg width="118" height="104" viewBox="0 0 118 104" fill="none" xmlns="http://www.w3.org/2000/svg">
<path d="M58.9722 81.5987C59.5134 81.5987 59.9522 81.1599 59.9522 80.6187C59.9522 80.0774 59.5134 79.6387 58.9722 79.6387C58.431 79.6387 57.9922 80.0774 57.9922 80.6187C57.9922 81.1599 58.431 81.5987 58.9722 81.5987Z" fill="#1C2E3D"/>
<path d="M30.5 7.82031V12.1203" stroke="#1F4CA2" stroke-linecap="round" stroke-linejoin="round"/>
<path d="M28.3359 9.96875H32.6459" stroke="#1F4CA2" stroke-linecap="round" stroke-linejoin="round"/>
<path d="M79.4512 34.9394C71.0812 34.9394 62.5612 34.5994 54.5912 32.3794C46.7712 30.2094 39.5912 25.9994 33.1912 21.1294C29.0012 17.9594 25.1912 15.4294 19.7512 15.8094C14.4293 16.0973 9.34 18.0847 5.23121 21.4794C-1.68879 27.5394 -0.648793 38.7694 2.12121 46.6294C6.28121 58.4994 18.9412 66.7694 29.7012 72.1194C42.1312 78.3294 55.7912 81.9394 69.4812 84.0094C81.4812 85.8394 96.9012 87.1594 107.301 79.3294C116.851 72.1194 119.471 55.6794 117.131 44.5794C116.563 41.3002 114.817 38.3414 112.221 36.2594C105.511 31.3494 95.5012 34.6294 87.9612 34.7894C85.1612 34.8494 82.3112 34.9194 79.4512 34.9394Z" fill="#4B4F5A"/>
<path d="M65.9097 1.96C66.4509 1.96 66.8897 1.52124 66.8897 0.98C66.8897 0.43876 66.4509 0 65.9097 0C65.3685 0 64.9297 0.43876 64.9297 0.98C64.9297 1.52124 65.3685 1.96 65.9097 1.96Z" fill="#1C2E3D"/>
<path d="M14.9922 78.2695V82.5695" stroke="#1F4CA2" stroke-linecap="round" stroke-linejoin="round"/>
<path d="M12.8359 80.4199H17.1359" stroke="#1F4CA2" stroke-linecap="round" stroke-linejoin="round"/>
<path d="M59.3663 103.469C79.6406 103.469 96.0762 102.443 96.0762 101.179C96.0762 99.9139 79.6406 98.8887 59.3663 98.8887C39.0919 98.8887 22.6562 99.9139 22.6562 101.179C22.6562 102.443 39.0919 103.469 59.3663 103.469Z" fill="#4B4F5A"/>
<path d="M88.877 76.6491H25.467C25.0426 76.6488 24.6234 76.5564 24.2383 76.3781C23.8532 76.1999 23.5114 75.9401 23.2366 75.6168C22.9617 75.2934 22.7604 74.9142 22.6465 74.5055C22.5327 74.0967 22.5089 73.668 22.577 73.2492L30.687 24.0691C30.7966 23.3847 31.1469 22.7618 31.6749 22.3127C32.2028 21.8635 32.8738 21.6176 33.567 21.6191H96.977C97.4011 21.6192 97.82 21.7116 98.2047 21.8899C98.5895 22.0683 98.9307 22.3283 99.2048 22.6518C99.4789 22.9754 99.6792 23.3548 99.7918 23.7636C99.9045 24.1724 99.9267 24.6009 99.857 25.0191L91.787 74.1992C91.6747 74.8879 91.3195 75.5136 90.7857 75.963C90.2519 76.4125 89.5748 76.6559 88.877 76.6491Z" fill="#05306E"/>
<path d="M89.6633 20.3329L52.0245 3.52779C50.915 3.03243 49.6141 3.53026 49.1187 4.63972L37.1896 31.3576C36.6942 32.4671 37.1921 33.768 38.3015 34.2634L75.9403 51.0685C77.0498 51.5638 78.3507 51.066 78.8461 49.9565L90.7752 23.2387C91.2705 22.1292 90.7727 20.8283 89.6633 20.3329Z" fill="#091730" stroke="#1F4CA2" stroke-linecap="round" stroke-linejoin="round"/>
<path d="M58.1035 22.7003C57.8259 24.3846 58.1392 26.1132 58.9902 27.5929C59.8413 29.0727 61.1778 30.2128 62.7732 30.8199C64.3687 31.427 66.125 31.4638 67.7445 30.9241C69.364 30.3844 70.7471 29.3014 71.6595 27.8586" stroke="#1F4CA2" stroke-width="0.68" stroke-linecap="round" stroke-linejoin="round"/>
<path d="M75.5378 23.9995C76.1067 23.9995 76.5678 23.5383 76.5678 22.9695C76.5678 22.4006 76.1067 21.9395 75.5378 21.9395C74.969 21.9395 74.5078 22.4006 74.5078 22.9695C74.5078 23.5383 74.969 23.9995 75.5378 23.9995Z" fill="#1F4CA2"/>
<path d="M60.6159 17.3393C61.1848 17.3393 61.6459 16.8782 61.6459 16.3093C61.6459 15.7404 61.1848 15.2793 60.6159 15.2793C60.0471 15.2793 59.5859 15.7404 59.5859 16.3093C59.5859 16.8782 60.0471 17.3393 60.6159 17.3393Z" fill="#1F4CA2"/>
<path d="M88.6018 76.6295H24.8818C24.1064 76.6269 23.3637 76.317 22.8164 75.7678C22.2691 75.2186 21.9618 74.4749 21.9618 73.6995V28.7695C21.9525 28.3797 22.021 27.992 22.1635 27.6291C22.3059 27.2661 22.5194 26.9353 22.7913 26.6559C23.0633 26.3765 23.3882 26.1542 23.7472 26.002C24.1062 25.8498 24.4919 25.7708 24.8818 25.7695H48.0918C48.6303 25.7715 49.158 25.9219 49.6166 26.2042C50.0753 26.4864 50.4473 26.8896 50.6918 27.3695L54.0018 33.8495C54.2453 34.3301 54.6171 34.734 55.076 35.0164C55.5349 35.2988 56.063 35.4487 56.6018 35.4495H88.6018C89.3762 35.4495 90.1189 35.7572 90.6665 36.3048C91.2141 36.8524 91.5218 37.5951 91.5218 38.3695V73.6995C91.5218 74.4749 91.2145 75.2186 90.6671 75.7678C90.1198 76.317 89.3771 76.6269 88.6018 76.6295Z" fill="#091730" stroke="#1F4CA2" stroke-linecap="round" stroke-linejoin="round"/>
<path d="M78.7919 36.9805C75.1107 36.9785 71.5117 38.0683 68.45 40.112C65.3883 42.1557 63.0014 45.0614 61.5914 48.4618C60.1813 51.8622 59.8113 55.6043 60.5282 59.215C61.2452 62.8256 63.0168 66.1425 65.6191 68.7462C68.2213 71.3498 71.5373 73.1233 75.1476 73.8422C78.7578 74.561 82.5002 74.1931 85.9013 72.7848C89.3024 71.3766 92.2095 68.9913 94.2548 65.9307C96.3002 62.8701 97.3919 59.2716 97.3919 55.5905C97.3919 50.6565 95.4326 45.9245 91.9447 42.4347C88.4568 38.945 83.7258 36.9831 78.7919 36.9805Z" fill="#091730" stroke="#1F4CA2" stroke-linecap="round" stroke-linejoin="round"/>
<path d="M92.0312 69.0898L96.9912 74.0498" stroke="#1F4CA2" stroke-linecap="round" stroke-linejoin="round"/>
<path d="M96.4323 71.6403L94.8913 73.2522C94.2006 73.9748 94.2264 75.1205 94.949 75.8113L108.322 88.5949C109.044 89.2857 110.19 89.2599 110.881 88.5373L112.422 86.9254C113.112 86.2028 113.087 85.057 112.364 84.3663L98.9914 71.5826C98.2688 70.8919 97.1231 70.9177 96.4323 71.6403Z" fill="#05306E"/>
<path d="M106.328 0.980469V5.29047" stroke="#1F4CA2" stroke-linecap="round" stroke-linejoin="round"/>
<path d="M104.172 3.13867H108.482" stroke="#1F4CA2" stroke-linecap="round" stroke-linejoin="round"/>
</svg>
